<svg width="201" height="201" viewBox="0 0 201 201" fill="none" xmlns="http://www.w3.org/2000/svg">
<path d="M40.4842 112.569C40.4928 112.491 40.5011 112.415 40.4884 112.343C40.4134 111.968 40.5822 111.583 40.9762 111.48C41.3232 111.386 41.7641 111.593 41.8391 111.968C41.8471 112.013 41.8498 112.071 41.8502 112.133C42.1788 112.106 42.5195 112.033 42.837 111.964C42.9386 111.943 43.0378 111.921 43.1335 111.902C43.6036 111.805 44.0636 111.693 44.5246 111.581C44.689 111.541 44.8536 111.501 45.0188 111.461C45.1551 111.429 45.2911 111.396 45.4269 111.363C45.9167 111.244 46.4047 111.125 46.9041 111.03C47.0316 111.007 47.1592 110.988 47.2868 110.968C47.4781 110.939 47.6694 110.91 47.8608 110.87L47.8801 110.864C47.9515 110.84 48.1109 110.786 48.1703 110.786L48.1741 110.786C47.9268 110.041 49.0366 109.439 49.4459 110.195C49.9806 111.189 49.127 112.062 48.1703 112.23C47.2136 112.399 46.285 112.587 45.3189 112.831C44.3528 113.075 43.3773 113.309 42.3831 113.44C42.3075 113.45 42.228 113.462 42.1459 113.474C41.7392 113.536 41.2711 113.607 40.9199 113.412C40.7042 113.3 40.5541 113.103 40.4884 112.868C40.4627 112.765 40.4737 112.665 40.4842 112.569Z" fill="black"/>
<path fill-rule="evenodd" clip-rule="evenodd" d="M40.0149 97.3148C39.9933 97.6885 39.9698 98.0944 40.1321 98.4049C40.3759 98.8738 40.8449 98.9864 41.3327 98.9114C42.28 98.7707 43.2273 98.5831 44.1653 98.3955C45.1033 98.2079 46.0318 98.0015 46.9604 97.7858C47.4669 97.6639 47.9265 97.5044 48.0203 96.9229C48.0743 96.5785 48.0554 96.2001 48.0371 95.8332C48.03 95.6905 48.0229 95.5494 48.0203 95.4127C48.0203 94.5123 46.604 94.5029 46.6134 95.4127V96.135C46.6134 96.1924 46.6182 96.2587 46.6233 96.3271L46.6234 96.3284C46.6253 96.355 46.6273 96.3819 46.629 96.4087L46.5102 96.4351L46.4248 96.4537L46.3179 96.4773C46.2546 96.4914 46.1913 96.5055 46.1256 96.5195C45.9756 96.5524 45.828 96.5852 45.6803 96.618C45.5328 96.6508 45.3845 96.6837 45.2346 96.7165C44.6437 96.8478 44.0434 96.9698 43.4524 97.0823C42.8615 97.1949 42.2612 97.3074 41.6609 97.42C41.5953 97.4294 41.532 97.4411 41.4687 97.4528L41.4077 97.464V96.951C41.4265 96.0412 40.0195 96.0412 40.0101 96.951L40.0289 96.9604C40.0289 97.0719 40.022 97.1917 40.0149 97.3148ZM41.0231 97.5326C41.0559 97.5191 41.0874 97.5131 41.1177 97.5145C41.0862 97.5198 41.0547 97.5255 41.0231 97.5326Z" fill="black"/>
<path d="M53.4442 135.846C53.4526 135.72 53.4606 135.599 53.4606 135.492L53.4512 135.473C53.4606 134.564 54.8675 134.564 54.8487 135.473V135.88L54.8909 135.867L54.8919 135.867L54.893 135.867C54.965 135.846 55.037 135.825 55.1114 135.802L55.9837 135.548C56.2831 135.464 56.5872 135.375 56.8913 135.286L56.8938 135.286C57.1985 135.197 57.5032 135.108 57.8033 135.023C58.4031 134.854 59.0123 134.676 59.6215 134.498L59.623 134.498C59.8827 134.429 60.1362 134.354 60.3936 134.278L60.5703 134.226C60.6465 134.203 60.7337 134.183 60.8244 134.162C60.9362 134.137 61.0536 134.11 61.1612 134.076V133.841C61.1612 133.718 61.153 133.598 61.1448 133.477C61.1406 133.415 61.1362 133.352 61.1331 133.288C61.1049 132.903 61.4801 132.584 61.8365 132.584C62.2399 132.584 62.5119 132.913 62.54 133.288C62.5429 133.325 62.5463 133.363 62.5499 133.401L62.5576 133.484C62.5991 133.926 62.6494 134.462 62.4462 134.836C62.2241 135.256 61.767 135.375 61.3362 135.486C61.2577 135.507 61.1801 135.527 61.1049 135.548C60.0919 135.849 59.0883 136.139 58.0472 136.44C57.6832 136.544 57.3193 136.655 56.955 136.766C56.277 136.972 55.5977 137.179 54.9144 137.349C54.4736 137.462 53.9858 137.462 53.6575 137.105C53.3807 136.807 53.4151 136.288 53.4442 135.846Z" fill="black"/>
<path fill-rule="evenodd" clip-rule="evenodd" d="M80.9238 77.4132C81.5429 79.8331 80.5768 82.4501 78.5602 83.9039L78.5508 83.8945C78.5164 83.9189 78.4821 83.9395 78.448 83.9566C78.335 84.0257 78.2232 84.0963 78.1114 84.167C77.6854 84.4361 77.2604 84.7046 76.7781 84.8794C76.1309 85.1139 75.4274 85.2171 74.7427 85.2264C73.4295 85.2452 72.0508 84.8043 71.019 83.9696C68.9743 82.3 68.2051 78.9608 69.1056 76.5221C70.0529 73.9521 72.9418 72.5639 75.5024 72.8265C78.0631 73.0891 80.3048 74.9932 80.9238 77.4132ZM77.838 82.6752C77.7021 82.7528 77.5686 82.8323 77.4356 82.9115C76.7971 83.2918 76.1723 83.6639 75.3805 83.7726C74.4238 83.9039 73.5515 83.7726 72.6886 83.3599C70.822 82.4782 69.9591 80.077 70.1655 78.1166C70.3999 75.8843 72.2196 74.3741 74.4144 74.2147C76.4873 74.0552 78.4476 75.1245 79.3012 77.038C80.1547 78.9514 79.5638 81.437 77.838 82.6752Z" fill="black"/>
<path fill-rule="evenodd" clip-rule="evenodd" d="M91.0488 72.4604C92.7563 77.7193 94.4816 83.0328 92.9954 88.5749L93.0048 88.5843C92.9317 88.8562 92.7492 89.0069 92.5398 89.0591C94.207 90.3851 95.4094 92.3586 96.3628 94.2593C96.5366 94.6053 96.7062 94.9598 96.8772 95.3171C97.656 96.9453 98.4624 98.6309 99.8238 99.8308C103.013 102.645 107.947 104.924 112.261 104.455C120.581 103.555 120.665 92.0081 120.384 85.8738V85.8832C120.346 84.9734 121.753 84.9828 121.791 85.8832C122.035 91.0608 121.997 97.2514 119.005 101.763C115.619 106.866 109.457 106.519 104.429 104.305C102.431 103.423 100.471 102.279 98.8296 100.834C97.3312 99.5147 96.3883 97.5672 95.4468 95.6226C94.0353 92.7073 92.627 89.7985 89.3549 89.0211C89.2862 89.1576 89.2428 89.3627 89.2717 89.4566C89.253 89.3816 89.3749 89.6161 89.3749 89.6255C89.4312 89.7286 89.4874 89.8224 89.5531 89.9162L89.8626 90.3946C90.3504 91.1919 90.5661 92.0266 90.416 92.9646C90.2767 93.8207 89.8336 94.822 89.1625 95.4879C89.1347 95.924 88.6325 96.309 88.1759 96.1228C87.7882 96.2538 87.3601 96.2729 86.8987 96.1349L86.8893 96.1443C86.1718 95.926 86.3038 94.9488 86.8701 94.7767C86.8453 94.7478 86.8205 94.719 86.7955 94.6903C85.96 93.7346 85.1349 92.7753 84.3117 91.8168C81.9117 93.9556 84.1219 98.5239 85.7731 100.421C87.3246 102.206 89.2876 103.644 91.2314 105.067C92.1782 105.76 93.1204 106.45 94.0083 107.175C95.4745 108.372 96.9174 109.601 98.3607 110.831L98.3617 110.832C99.7953 112.053 101.23 113.275 102.688 114.466C102.978 114.465 103.26 114.705 103.359 115.011C105.233 116.521 107.153 117.974 109.166 119.303C114.54 122.848 122.016 126.722 128.516 124.133C134.528 121.741 137.839 115.007 139.602 109.191C141.638 102.447 141.919 95.3376 141.563 88.3498C141.516 87.4399 142.923 87.4493 142.97 88.3498C143.401 96.9322 142.857 105.787 139.424 113.769C136.864 119.715 132.277 125.69 125.355 126.309C121.612 126.647 117.757 125.381 114.503 123.908C112.913 123.189 111.379 122.355 109.892 121.442C109.911 121.505 109.923 121.573 109.926 121.648C110.08 126.058 109.715 130.476 109.35 134.895L109.25 136.102C108.856 140.923 108.378 145.735 107.871 150.537C107.778 151.428 106.371 151.438 106.464 150.537C106.962 145.725 107.449 140.886 107.843 136.102C107.873 135.743 107.903 135.383 107.933 135.023L107.933 135.021C108.301 130.588 108.675 126.098 108.519 121.648C108.505 121.22 108.81 120.995 109.139 120.971C107.848 120.148 106.593 119.268 105.367 118.355C104.477 117.69 103.6 117.01 102.731 116.318C98.492 121.55 93.9439 126.623 88.9528 131.027C83.7659 135.605 78.0256 139.478 71.882 142.668V142.677C71.7555 142.742 71.6314 142.766 71.515 142.76C71.5227 143.59 71.515 144.42 71.4881 145.247C71.4759 145.636 71.2066 145.859 70.9068 145.913C70.8561 146.13 70.7129 146.328 70.4564 146.429C62.2492 149.674 53.9671 152.882 45.1409 153.923V153.914C44.9949 153.931 44.8728 153.908 44.7745 153.857C44.5741 154.063 44.2641 154.16 43.9402 153.989C41.8548 152.886 39.7281 151.859 37.601 150.831C36.0524 150.083 34.5029 149.334 32.9695 148.557C32.9502 148.561 32.9303 148.565 32.9097 148.568C31.968 148.709 31.0219 148.784 30.0745 148.859C29.6349 148.894 29.1944 148.929 28.7546 148.971C28.6424 148.981 28.5309 148.993 28.4209 149.005C28.1014 149.039 27.7938 149.071 27.5159 149.058C27.408 149.139 27.2644 149.183 27.0852 149.168C23.2358 148.858 19.8048 146.74 16.5209 144.712C16.0282 144.408 15.5381 144.106 15.0512 143.812C13.9119 143.125 12.776 142.432 11.6402 141.739C9.05451 140.161 6.46891 138.583 3.84257 137.077C3.42134 136.837 3.42907 136.376 3.64788 136.068C3.71386 132.879 3.69121 129.689 3.66854 126.496C3.65707 124.881 3.6456 123.265 3.6456 121.648C3.64149 116.074 3.90578 110.5 4.17007 104.926C4.50886 97.7811 4.84765 90.6361 4.62108 83.4911C4.61547 83.3097 4.6669 83.1649 4.75308 83.0563C4.75224 82.8411 4.84262 82.6234 5.06179 82.4689C10.3425 78.7451 16.8613 77.8447 23.1456 77.2537C23.4038 77.2295 23.6627 77.2049 23.922 77.1801C26.8749 76.8988 29.893 76.6113 32.816 76.8786C35.9957 77.1693 38.9877 78.1073 42.0361 79.2047C45.0845 80.3021 48.0953 81.484 51.078 82.7409C51.7568 83.0275 52.4317 83.3294 53.1063 83.631C53.9325 84.0005 54.7582 84.3698 55.5896 84.7106C55.8472 84.8173 56.1121 84.9117 56.3774 85.0063C57.0682 85.2526 57.7618 85.4998 58.3378 85.9675C59.8567 87.2068 59.8171 89.5358 59.7835 91.5077C59.7754 91.9834 59.7677 92.4383 59.7823 92.8522C59.8434 94.5867 59.9304 96.3188 60.0174 98.0498C60.1039 99.7729 60.1904 101.495 60.2513 103.217C60.4911 109.998 60.4043 116.797 60.089 123.57C60.9861 123.382 61.8877 123.213 62.7932 123.064C63.3559 122.97 63.7311 123.374 63.6561 123.927C63.4857 125.071 63.5118 126.222 63.6981 127.356L64.4242 127.156L64.3373 127.118L64.2283 127.069C63.8812 126.91 63.7968 126.403 63.975 126.103C64.1814 125.746 64.5941 125.69 64.9411 125.85C65.9229 126.292 66.9715 126.692 68.0223 127.092C68.6881 127.346 69.3549 127.601 70.0061 127.866V127.876C70.0381 127.889 70.0693 127.903 70.0995 127.919C70.3563 128.01 70.5266 128.268 70.5637 128.54L70.8836 128.126C76.6141 120.717 82.4956 113.112 85.9608 104.361C86.2985 103.526 87.6585 103.892 87.3208 104.736C83.7477 113.758 77.7331 121.547 71.8452 129.171L71.8343 129.185C71.5434 129.562 71.2528 129.938 70.9628 130.315C70.8967 130.399 70.8211 130.463 70.7401 130.509C70.794 131.098 70.8477 131.686 70.8972 132.275L70.8973 132.277L70.958 133.025C71.1806 135.766 71.4052 138.532 71.4863 141.292C77.5022 138.134 83.1607 134.288 88.2212 129.799C93.1349 125.44 97.5106 120.534 101.642 115.441C100.057 114.153 98.4965 112.836 96.9354 111.517C94.2153 109.22 91.4935 106.922 88.6432 104.783C86.0075 102.804 83.597 100.665 82.4902 97.4668C81.7013 95.179 81.5923 92.4817 83.4109 90.768C83.1855 90.5057 82.96 90.2436 82.7342 89.9817C82.5215 89.7363 82.3099 89.4909 82.0987 89.2459L82.0976 89.2446L82.0963 89.243C81.7029 88.7867 81.3107 88.3317 80.9145 87.8807C80.8372 87.7916 80.7609 87.7013 80.6847 87.611C80.5361 87.4349 80.3874 87.2588 80.23 87.0914C80.1378 87.149 80.0458 87.2069 79.9538 87.2649C79.3034 87.6748 78.6537 88.0842 77.9224 88.3593C76.9 88.7439 75.7839 88.8939 74.6958 88.9127C72.6511 88.9502 70.4844 88.2843 68.8805 86.9805C65.6164 84.326 64.3408 79.2047 65.8415 75.1621C67.3422 71.1195 71.9195 68.9996 75.9339 69.4123C79.9484 69.8251 83.4376 72.8547 84.4131 76.6253C85.1328 79.4075 84.5045 82.3838 82.8595 84.6649C83.0146 84.8394 83.1667 85.0159 83.3194 85.1933C83.4174 85.3071 83.5162 85.4217 83.6158 85.5359L84.1777 86.1831L84.1785 86.1839C85.1731 87.3298 86.1699 88.4782 87.18 89.6067L87.4523 89.9067C87.8915 90.3909 88.3324 90.8772 88.7841 91.3477C88.6836 91.1651 88.5657 90.9917 88.448 90.8186C88.2505 90.5281 88.0533 90.2383 87.9398 89.9068C87.7241 89.2596 87.9398 88.4061 88.4276 87.9277C88.4599 87.8959 88.493 87.8681 88.5269 87.8441C88.6804 87.6451 88.9272 87.5132 89.2343 87.5622C90.1133 87.7044 90.9036 88.006 91.6179 88.4247C91.616 88.3569 91.6244 88.2849 91.6447 88.2091C92.1512 86.2956 92.2732 84.3447 92.095 82.3749C91.7815 78.9631 90.7222 75.7244 89.6627 72.4854C88.5028 68.9391 87.3427 65.3924 87.1613 61.6177C86.8799 55.7179 89.6094 50.0619 95.284 48.064C100.959 46.0662 107.159 47.7639 112.102 50.8217C115.019 52.6222 117.646 54.8409 120.26 57.0482L120.384 57.153C123.207 59.5354 126.087 61.8147 129.163 63.8594C132.87 66.3215 136.729 68.5267 140.588 70.7327C143.242 72.2496 145.897 73.7669 148.504 75.3683C152.856 78.0415 156.87 81.0711 160.632 84.5322C169.617 92.7957 177.337 102.569 183.649 113C190.393 124.133 195.73 136.468 197.493 149.44C197.606 150.331 196.255 150.706 196.133 149.815C195.927 148.286 195.674 146.757 195.364 145.238C192.832 132.706 187.176 120.916 180.263 110.251C173.96 100.534 166.447 91.3982 157.696 83.7912C152.137 78.9642 145.787 75.3261 139.432 71.6851C134.87 69.0717 130.306 66.4568 126.03 63.3998C123.906 61.8829 121.899 60.1897 119.891 58.496C116.659 55.77 113.426 53.0427 109.7 51.0468C104.701 48.3642 97.8259 47.3043 92.9297 50.8217C87.4521 54.7611 88.1086 62.3024 89.6844 68.0334C90.0899 69.5073 90.5687 70.9817 91.0488 72.4604ZM58.8103 120.675C59.0326 114.552 59.0634 108.415 58.8162 102.298C58.7588 100.814 58.6847 99.3322 58.6107 97.8508C58.5275 96.1853 58.4443 94.5201 58.3847 92.8522C58.3663 92.3879 58.369 91.9115 58.3717 91.4316C58.3773 90.4476 58.383 89.4488 58.2065 88.5094C58.0963 87.9228 57.8638 87.513 57.5416 87.2023C57.4646 87.2388 57.3767 87.263 57.2781 87.2713C52.4945 87.6465 47.7672 88.4906 43.0492 89.3348C41.8862 89.5412 40.7208 89.7217 39.5553 89.9023C38.3899 90.0828 37.2245 90.2634 36.0614 90.4697C35.2748 90.6111 34.4938 90.7833 33.7129 90.9555C32.4734 91.2288 31.2343 91.502 29.9741 91.6516C28.9324 91.7786 27.9071 91.801 26.894 91.6845C26.9588 93.9458 26.9656 96.2118 26.9724 98.4754L26.9725 98.4794C26.9748 99.2554 26.9771 100.031 26.9818 100.806C27.0131 105.917 27.0299 111.024 27.0466 116.131C27.0601 120.218 27.0735 124.305 27.0944 128.392C27.1037 131.722 27.1225 135.042 27.1694 138.372C27.1975 140.51 27.2632 142.658 27.4039 144.797C27.432 145.313 27.4789 145.838 27.5258 146.354C27.5258 146.42 27.5727 147.686 27.5727 147.686C27.7095 147.782 28.2952 147.668 28.686 147.592C28.8311 147.564 28.9494 147.541 29.0078 147.536C29.4179 147.496 29.8292 147.465 30.2404 147.434L30.403 147.421C30.3112 147.313 30.2517 147.17 30.2461 146.992C30.1688 144.559 30.1389 142.122 30.109 139.687C30.099 138.873 30.089 138.059 30.0773 137.246C29.9647 130.311 29.8605 123.377 29.7563 116.442L29.7562 116.438C29.7041 112.972 29.652 109.506 29.5989 106.04C29.5755 104.629 29.5497 103.221 29.5239 101.813L29.5238 101.806C29.498 100.398 29.4723 98.99 29.4488 97.5795C29.4301 95.8255 30.1242 94.8876 31.7374 94.2122C33.4122 93.5132 35.234 93.1024 37.0228 92.6991C37.5378 92.583 38.0511 92.4673 38.5564 92.3457C43.4713 91.1638 48.4425 90.1696 53.4981 89.9257C53.6353 89.9186 53.7517 89.9446 53.8472 89.9941C55.8115 89.4834 56.6828 91.634 56.8558 93.2366C57.1415 95.9499 57.0958 98.6802 57.0503 101.403L57.0434 101.819C56.9403 107.785 57.0716 113.75 57.5124 119.706C57.5781 120.607 56.1711 120.607 56.1055 119.706C55.7766 115.313 55.5994 110.904 55.5874 106.494C55.567 106.499 55.5459 106.505 55.524 106.509C52.1985 107.187 48.9342 108.116 45.6718 109.044C40.8792 110.408 36.0906 111.77 31.1181 112.335C31.1402 113.862 31.1619 115.389 31.1835 116.916C31.2203 119.519 31.2572 122.121 31.2966 124.724C31.3194 126.225 31.3379 127.727 31.355 129.228C31.4623 129.151 31.6053 129.112 31.7843 129.133C32.223 129.183 32.6534 129.266 33.0778 129.372L33.0463 129.292C32.8734 128.858 32.7009 128.424 32.4877 128.007C32.3282 127.698 32.3845 127.201 32.7409 127.041C34.6861 126.178 36.6378 125.334 38.5897 124.49L38.5909 124.49C40.6084 123.617 42.6265 122.745 44.6379 121.851L44.6344 121.047C44.6344 120.682 44.9627 120.325 45.3379 120.344C49.6806 120.56 54.0234 120.616 58.3661 120.513C58.5186 120.509 58.6802 120.572 58.8103 120.675ZM55.1932 86.0571C53.8487 85.539 52.5271 84.9502 51.2056 84.3614C50.0951 83.8666 48.9847 83.3718 47.8608 82.9191C45.0563 81.7935 42.3644 80.7336 39.3535 79.7581C36.3427 78.7826 33.3037 78.1636 30.124 78.1917C27.1919 78.2102 24.2508 78.5277 21.3451 78.8414L21.1947 78.8577C16.2085 79.3944 11.1503 80.3386 6.83878 82.988C10.9125 83.3845 14.9146 84.6103 18.5591 86.4552C19.3702 86.8608 20.1546 87.3177 20.939 87.7745C21.8962 88.3321 22.8533 88.8896 23.8586 89.3536C25.8283 90.254 27.7605 90.5354 29.9741 90.254C31.2101 90.0969 32.4285 89.8286 33.6474 89.5603C34.6114 89.3481 35.5757 89.1358 36.5492 88.9784C37.0889 88.8917 37.629 88.806 38.1695 88.7202L38.1737 88.7196C39.9706 88.4345 41.7707 88.149 43.5651 87.8247C47.4267 87.132 51.2951 86.4663 55.1932 86.0571ZM5.97174 92.7207C6.04065 89.8955 6.10955 87.0702 6.04771 84.2449C6.14077 84.3039 6.25302 84.3432 6.38444 84.3542V84.3354C10.8491 84.7012 15.2669 86.1645 19.1594 88.3687C19.5099 88.5662 19.8583 88.7676 20.2067 88.9691C21.5466 89.7439 22.8874 90.5192 24.3463 91.07C24.7234 91.2124 25.1016 91.3307 25.4812 91.4267C25.4805 91.445 25.4805 91.4637 25.4811 91.4828C25.6358 96.8189 25.6313 102.16 25.6268 107.499C25.625 109.602 25.6232 111.704 25.6312 113.806C25.6382 115.873 25.6417 117.939 25.6452 120.006C25.6558 126.206 25.6663 132.409 25.7718 138.606C25.7784 139.038 25.7832 139.472 25.7879 139.907C25.8161 142.488 25.8448 145.125 26.2618 147.658C24.1154 147.303 22.1659 146.304 20.2756 145.238C18.5404 144.262 16.8333 143.24 15.1262 142.208C14.1669 141.627 13.2097 141.042 12.2525 140.457L12.2513 140.457C9.8597 138.995 7.46815 137.534 5.04395 136.138C5.11172 132.788 5.10289 129.438 5.09406 126.088C5.08111 121.179 5.06817 116.272 5.29641 111.368C5.58717 105.158 5.82166 98.9395 5.97174 92.7207ZM36.7274 94.2497C42.2339 92.8731 47.7872 91.6087 53.4712 91.334C53.6169 91.4409 53.8118 91.4827 54.042 91.4076H54.0232C55.7334 90.8403 55.6851 95.4745 55.6667 97.2388C55.6644 97.4581 55.6626 97.6331 55.6646 97.7482C55.6813 99.1782 55.6553 100.608 55.6294 102.038C55.6114 103.028 55.5934 104.018 55.5896 105.008L55.5886 105.192C55.4632 105.136 55.315 105.116 55.1489 105.149C51.8638 105.818 48.6372 106.743 45.4118 107.668C40.6978 109.019 35.9862 110.37 31.0974 110.921C31.0374 106.846 30.9726 102.771 30.8933 98.6957C30.8933 98.5035 30.8862 98.3136 30.8792 98.1237C30.8722 97.9338 30.8651 97.7437 30.8651 97.5514C30.8651 96.0882 31.6812 95.6755 32.9755 95.244C33.927 94.9244 34.9066 94.6892 35.8795 94.4556C36.163 94.3875 36.4459 94.3196 36.7274 94.2497ZM31.3675 130.355L31.3784 131.354C35.3154 132.474 39.1386 133.885 42.9084 135.492H42.9178C43.1975 135.613 43.3005 135.832 43.2825 136.054C43.2916 136.09 43.2983 136.128 43.3024 136.167C43.9098 141.671 44.3276 147.183 44.5469 152.713L44.6512 152.769C44.7631 152.632 44.9264 152.532 45.1409 152.507C53.817 151.484 62.0147 148.258 70.0812 145.069L70.0867 145.067C70.2038 141.062 69.8753 137.018 69.551 133.025L69.4902 132.275L69.4897 132.269C69.4385 131.659 69.3826 131.049 69.3267 130.439L69.3265 130.436L69.3261 130.432L69.3258 130.429C69.2838 129.97 69.2418 129.512 69.2018 129.054C68.6715 128.843 68.1392 128.64 67.6073 128.436L67.6006 128.434L67.5988 128.433C67.2497 128.299 66.9009 128.166 66.5527 128.031C62.6508 129.117 58.7399 130.168 54.8289 131.219L54.8277 131.219L54.8251 131.22L54.8229 131.22C50.8608 132.285 46.8986 133.349 42.9459 134.451C42.8029 134.491 42.6732 134.488 42.5602 134.453C42.4929 134.449 42.4212 134.433 42.3458 134.404C41.4453 134.052 40.5472 133.698 39.6491 133.344L39.6429 133.342C38.7469 132.988 37.8508 132.635 36.9525 132.284C36.5826 132.139 36.2089 131.982 35.8315 131.824C34.5249 131.276 33.1744 130.709 31.7843 130.549V130.54C31.6126 130.52 31.4736 130.451 31.3675 130.355ZM31.3943 132.827C31.4433 137.321 31.4983 141.814 31.6321 146.301C31.6943 146.315 31.7577 146.339 31.8217 146.373C33.9072 147.476 36.0338 148.503 38.1609 149.531L38.1624 149.531L38.1654 149.533C38.5793 149.733 38.9932 149.933 39.4068 150.133C38.9843 145.284 38.6857 140.434 38.5188 135.567C38.515 135.443 38.538 135.336 38.5807 135.245C36.2199 134.343 33.8282 133.533 31.3943 132.827ZM39.9329 135.774C40.1096 140.811 40.4271 145.831 40.8771 150.85C41.6232 151.217 42.3673 151.587 43.1075 151.965C42.8808 146.831 42.4973 141.711 41.9428 136.6C41.2751 136.317 40.6052 136.042 39.9329 135.774ZM81.8243 86.7798C81.6815 86.6105 81.5382 86.4407 81.3896 86.2758C81.5848 86.1064 81.7724 85.9293 81.952 85.7453C82.411 86.2505 82.8535 86.7724 83.2959 87.2942C83.5608 87.6066 83.8257 87.919 84.0941 88.2278L84.3473 88.5187L84.3486 88.5202L84.3495 88.5212C85.4641 89.8019 86.5757 91.0793 87.7521 92.308C87.8123 92.3708 87.8726 92.4348 87.9334 92.4992L87.9341 92.4999C88.222 92.8051 88.5197 93.1207 88.8531 93.3745C88.7891 93.5368 88.7143 93.6946 88.6339 93.8463C88.5518 94.0016 88.4506 94.1707 88.3304 94.3237L88.276 94.2595L88.2275 94.2021L88.226 94.2003L88.2253 94.1995C88.1493 94.1095 88.0733 94.0194 87.9961 93.9306C87.5995 93.479 87.2069 93.0236 86.8131 92.5667C86.6015 92.3212 86.3896 92.0754 86.1765 91.8295C85.7373 91.3202 85.2992 90.8099 84.8607 90.2993C83.9506 89.2394 83.0393 88.178 82.1151 87.1209C82.0179 87.0091 81.922 86.8955 81.8258 86.7815L81.8243 86.7798ZM82.5934 75.6686C84.077 78.9437 83.073 83.3327 80.0708 85.539C80.055 85.5468 80.0393 85.5551 80.0234 85.5642C79.812 85.686 79.6057 85.8084 79.402 85.9292C78.2409 86.618 77.1667 87.2552 75.7463 87.4307C74.0768 87.6371 72.5854 87.3932 71.0847 86.6897C67.8675 85.1702 66.3761 81.0525 66.7044 77.6758C67.089 73.7364 70.2968 71.0819 74.1518 70.7912C77.7161 70.5285 81.1021 72.3763 82.5934 75.6686ZM34.8138 129.846C34.6006 129.429 34.4281 128.995 34.2552 128.56C34.1813 128.375 34.1074 128.189 34.0302 128.004C35.9738 127.142 37.9232 126.299 39.8723 125.456L39.8767 125.454C41.4673 124.766 43.0577 124.079 44.6445 123.381L44.6532 125.362C44.6532 125.42 44.6589 125.474 44.6698 125.524C44.4135 125.635 44.1574 125.747 43.9013 125.859C42.1237 126.634 40.344 127.411 38.472 127.923C38.0124 128.045 37.8529 128.551 38.0499 128.954C38.3784 129.626 38.707 130.294 39.0355 130.963L39.4184 131.743L39.2346 131.67L39.2333 131.67L39.232 131.669L39.2268 131.667C38.5271 131.391 37.8282 131.114 37.1307 130.84C36.8415 130.726 36.5527 130.609 36.2637 130.492C35.7951 130.303 35.3259 130.113 34.8526 129.936C34.8419 129.906 34.829 129.876 34.8138 129.846ZM48.1441 131.56C46.3375 132.05 44.532 132.545 42.7284 133.047L42.7209 133.044C42.2508 132.86 41.7806 132.675 41.3105 132.49C41.3003 132.414 41.2772 132.335 41.2389 132.256C40.9105 131.585 40.5821 130.917 40.2537 130.248C40.0552 129.844 39.8567 129.44 39.6582 129.035C41.2405 128.538 42.7667 127.873 44.2925 127.208C46.5776 126.212 48.8617 125.216 51.3313 124.785V126.075C50.3917 126.419 49.4598 126.784 48.5362 127.172C48.2548 127.294 48.0109 127.519 48.0203 127.848L48.1423 131.525C48.1426 131.536 48.1432 131.548 48.1441 131.56ZM54.4369 129.863C52.8005 130.303 51.1642 130.742 49.5285 131.184L49.433 128.303C53.5442 126.619 57.8179 125.373 62.1867 124.583C62.1134 125.637 62.1605 126.682 62.3365 127.729C59.7138 128.445 57.0884 129.151 54.463 129.856L54.4507 129.859L54.4369 129.863ZM57.3502 124.208C55.7963 124.607 54.258 125.064 52.7382 125.58V124.415C52.7382 124.088 52.484 123.769 52.1557 123.718C52.0087 123.48 51.7414 123.308 51.397 123.355V123.364C49.5325 123.631 47.7796 124.234 46.0582 124.938L46.048 122.594C46.1059 122.455 46.0997 122.297 46.0461 122.15L46.0445 121.786C49.8924 121.969 53.7403 122.02 57.5882 121.938C57.5555 122.252 57.5223 122.567 57.4891 122.881L57.4887 122.885C57.4421 123.327 57.3956 123.768 57.3502 124.208Z" fill="black"/>
<path d="M93.5206 67.1704C92.7421 65.3695 92.1793 63.503 91.8698 61.5707C91.8042 61.1956 91.9542 60.8204 92.3576 60.7078C92.6952 60.614 93.1642 60.8204 93.2205 61.1956C93.3987 62.3211 93.6613 63.4279 94.0084 64.5066C94.1866 65.0506 94.3835 65.5946 94.5993 66.1293C94.6377 66.2242 94.6756 66.3244 94.7145 66.4269C94.7792 66.5978 94.8463 66.775 94.922 66.9453C94.9567 66.9192 94.9914 66.8923 95.0261 66.8655C95.0777 66.8257 95.1292 66.7858 95.1808 66.7483C95.2931 66.6641 95.4031 66.5775 95.5131 66.4909C95.6233 66.4041 95.7342 66.3169 95.8468 66.2324L97.2256 65.1632C97.5257 64.9287 97.9197 64.863 98.2198 65.1632C98.4637 65.407 98.5199 65.9229 98.2198 66.1574L95.7154 68.099C95.2746 68.4461 94.74 68.8588 94.2053 68.4085C93.93 68.1779 93.7728 67.7878 93.6305 67.4351C93.5935 67.3432 93.5574 67.2537 93.5206 67.1704Z" fill="black"/>
</svg>
