<svg width="201" height="201" viewBox="0 0 201 201" fill="none" xmlns="http://www.w3.org/2000/svg">
<g clip-path="url(#clip0_6061_649)">
<circle cx="81.7859" cy="105.131" r="34.1921" fill="#D3BCFF"/>
<path d="M84.2153 103.625C84.4694 102.814 84.1871 101.955 83.6199 101.344C82.9629 100.636 81.9569 100.381 81.0175 100.438C80.1706 100.489 79.1492 100.705 78.5409 101.346C77.8788 102.045 78.0174 102.997 78.5692 103.71C79.1209 104.424 79.9781 104.978 80.8122 105.345C81.6463 105.712 82.5523 105.92 83.43 105.681C85.1213 105.222 85.7732 103.264 85.2291 101.711C84.6208 99.9786 82.8115 98.9289 81.1176 98.4977C79.4238 98.0666 77.4066 98.3104 76.2722 99.8271C75.3586 101.049 75.2302 102.725 75.5767 104.172C75.9514 105.738 76.9575 107.067 78.2689 107.981C79.5803 108.894 81.1869 109.369 82.7576 109.161C84.3282 108.953 85.6423 108.053 86.4507 106.728C87.2591 105.404 87.5106 103.849 87.3566 102.355C87.1847 100.672 86.4943 99.1753 85.4293 97.8689C84.2513 96.4215 82.6934 95.3102 81.0714 94.4094C80.2527 93.9551 79.411 93.5445 78.5538 93.1698C77.6966 92.7951 76.7444 92.4512 75.7718 92.3485C74.8735 92.251 73.929 92.4076 73.1822 92.9414C72.4354 93.4752 71.958 94.2913 71.5987 95.128C70.7749 97.0451 70.3129 99.106 70.2077 101.187C70.0152 104.991 70.9982 108.992 73.4851 111.941C74.5578 113.211 75.9309 114.263 77.5195 114.795C79.2467 115.375 81.1202 115.223 82.7935 114.533C84.5772 113.796 86.1196 112.57 87.4516 111.191C88.7836 109.813 90.0078 108.217 91.0266 106.549C93.0618 103.21 94.3707 99.4396 94.8276 95.5566C95.0739 93.4675 95.0098 91.3399 94.2167 89.3689C93.5469 87.7059 92.4895 86.2327 91.2191 84.9752C89.9231 83.6894 88.4192 82.614 86.828 81.7261C84.9827 80.6969 82.9834 79.8834 80.8764 79.6087C78.9105 79.3521 76.96 79.6549 75.1558 80.4685C73.4568 81.2333 71.9529 82.4113 70.6697 83.751C68.0032 86.5407 65.8781 90.2826 65.8756 94.2323C65.8756 97.8125 67.6464 101.126 70.0665 103.672C71.3164 104.986 72.7562 106.128 74.3012 107.075C76.0207 108.13 77.907 109.007 79.8857 109.438C81.9415 109.888 84.0331 109.759 86.0324 109.113C88.0316 108.466 89.7948 107.452 91.4783 106.287C94.5837 104.134 97.2811 101.416 99.424 98.3027C100.502 96.7372 101.436 95.0715 102.203 93.3341C103.061 91.3938 103.784 89.3099 103.748 87.1592C103.682 83.23 100.761 80.294 97.5839 78.3871C94.1012 76.2955 90.1233 75.1124 86.0888 74.7505C81.9723 74.3809 77.8095 74.9019 73.8649 76.1133C69.9203 77.3246 66.1605 79.2135 62.7497 81.5541C59.5005 83.7843 56.5209 86.4611 54.2522 89.7051C51.9834 92.9491 50.3255 97.0631 50.6001 101.164C50.8568 104.999 52.8612 108.63 55.3532 111.479C57.6476 114.104 60.5579 116.196 63.7429 117.605C66.9278 119.014 70.4746 119.789 73.9983 119.72C77.5708 119.65 81.0971 118.752 84.3205 117.225C87.544 115.698 90.5185 113.486 92.9386 110.827C95.3588 108.168 97.4915 104.721 98.5412 101.095C99.5909 97.4686 99.5703 93.2288 97.6327 89.7539C95.8721 86.5946 92.8873 84.2925 89.7357 82.6294C86.2685 80.797 82.447 79.5472 78.582 78.9004C74.7169 78.2537 70.6209 78.2229 66.7251 79.0672C62.7959 79.9167 59.113 81.6876 56.0256 84.2643C52.933 86.8435 50.3589 90.2466 49.2117 94.1451C48.0645 98.0435 48.3545 102.181 49.63 105.958C50.9055 109.736 53.0844 112.944 55.8126 115.711C58.5407 118.477 61.836 120.867 65.3212 122.622C67.187 123.564 69.1606 124.206 71.2522 124.365C73.3439 124.524 75.3124 124.244 77.2449 123.677C81.169 122.527 84.5772 120.156 87.5158 117.364C89.0069 115.947 90.3902 114.422 91.7221 112.857C93.0541 111.291 94.3117 109.721 95.3896 107.996C97.4735 104.665 98.7157 100.759 97.5813 96.8655C96.447 92.9722 93.7445 90.0798 90.8547 87.6032C87.9649 85.1266 84.5002 83.0324 80.8636 81.6003C77.4374 80.2504 73.6878 79.311 69.987 79.4034C66.7071 79.4856 63.2193 80.4582 61.084 83.1119C58.4842 86.3431 58.6023 90.7805 59.7366 94.5608C60.3423 96.5806 61.1995 98.5234 62.0798 100.435C62.8933 102.204 63.7685 103.946 64.7207 105.645C66.6121 109.018 68.8116 112.233 71.4165 115.095C72.71 116.517 74.1061 117.849 75.6024 119.057C77.1628 120.318 78.8258 121.485 80.6326 122.368C82.4393 123.251 84.2795 123.777 86.2454 123.89C88.0804 123.995 89.941 123.739 91.6939 123.187C95.2792 122.063 98.3461 119.748 100.533 116.707C102.771 113.588 104.041 109.834 104.431 106.033C104.821 102.232 104.298 98.2616 102.932 94.6635C101.567 91.0602 99.365 87.7777 96.4316 85.2652C93.4981 82.7526 90.0642 81.0562 86.3506 80.3068C82.4137 79.5112 78.3818 79.9347 74.6092 81.2718C70.8288 82.6089 67.3282 84.7211 64.192 87.2028C61.2945 89.4972 58.6895 92.2125 56.6877 95.3307C54.7321 98.3771 53.3976 101.834 53.0844 105.455C52.7277 109.569 53.7697 113.671 55.4892 117.387C57.1112 120.89 59.3183 124.19 62.0439 126.931C64.559 129.459 67.6156 131.571 71.088 132.516C75.0301 133.589 79.1004 132.852 82.773 131.202C86.1966 129.667 89.2353 127.316 91.7273 124.524C94.4143 121.514 96.4495 117.987 97.9227 114.24C99.3958 110.493 100.453 106.146 100.836 101.968C101.033 99.7989 101 97.5892 100.499 95.4616C100.061 93.601 99.2315 91.8455 98.1074 90.3031C95.8156 87.1592 92.5126 84.97 88.917 83.579C84.9057 82.0263 80.5197 81.3308 76.2414 81.1075C71.8631 80.8791 67.4282 81.2667 63.2039 82.4652C59.8624 83.4122 56.39 84.9572 54.1906 87.7572C53.0511 89.2098 52.3787 90.9242 52.2581 92.772C52.1169 94.915 52.6584 97.0528 53.3437 99.0623C54.6371 102.863 56.5697 106.418 58.8538 109.71C61.1482 113.019 63.7788 116.08 66.5377 119.009C69.407 122.052 72.3892 125.022 75.6999 127.588C79.0106 130.155 82.637 132.293 86.6278 133.571C90.4774 134.803 94.6556 135.213 98.6207 134.31C102.067 133.524 105.355 131.766 107.77 129.162C109.04 127.794 110.026 126.208 110.714 124.475C111.499 122.494 111.882 120.374 112.079 118.259C112.459 114.181 112.215 109.967 110.968 106.048C109.787 102.342 107.652 99.0623 104.755 96.4677C101.857 93.873 98.4359 92.0303 94.7993 90.7676C90.6391 89.3227 86.2531 88.6503 81.8799 88.2833C77.2064 87.8906 72.5021 87.8188 67.8184 88.0549C65.5163 88.1704 63.2116 88.3552 60.9223 88.6323C58.8897 88.8787 56.816 89.2534 55.0426 90.3313C51.8654 92.2639 50.1048 95.9339 49.3785 99.4678C48.6471 103.035 48.9422 106.754 49.9816 110.229C51.0493 113.796 52.8714 117.122 55.2223 120.004C57.6168 122.943 60.6323 125.553 64.1253 127.088C65.9551 127.891 67.8954 128.376 69.8946 128.466C72.1531 128.569 74.4167 128.202 76.6059 127.67C80.5479 126.713 84.4899 125.35 87.9598 123.22C89.6716 122.168 91.2602 120.913 92.6435 119.453C94.0268 117.992 95.2356 116.327 96.2904 114.6C97.3452 112.872 98.3179 110.976 99.1802 109.092C100.043 107.208 100.869 105.119 101.39 103.027C101.911 100.936 102.15 98.8365 101.965 96.7218C101.801 94.8354 101.323 92.9902 100.592 91.245C99.1161 87.7238 96.6779 84.6287 93.7471 82.1983C92.1969 80.9125 90.498 79.8141 88.627 79.0647C86.7741 78.323 84.7748 77.9893 82.7832 78.0227C78.7308 78.0945 74.8145 79.5908 71.3113 81.5413C67.6208 83.5944 64.2099 86.2071 61.0609 89.0122C59.4749 90.4263 57.9478 91.9123 56.5132 93.4752C55.1838 94.9227 53.9314 96.4651 52.9536 98.1769C51.9244 99.976 51.27 101.926 51.0518 103.987C50.8157 106.218 51.0544 108.468 51.4137 110.673C52.0989 114.887 53.1768 119.119 55.579 122.709C57.7297 125.925 60.6965 128.587 64.0226 130.547C67.3487 132.508 70.7826 133.678 74.4423 134.243C78.1021 134.808 81.8337 134.713 85.4369 133.902C88.9196 133.119 92.2303 131.643 95.156 129.603C98.0818 127.563 100.499 125.125 102.506 122.283C104.513 119.442 106.038 116.222 106.908 112.842C107.988 108.653 108.04 104.247 107.367 99.9888C106.695 95.7311 105.409 91.7891 103.104 88.2987C100.874 84.9264 97.7405 82.2932 94.3759 80.1041C91.0113 77.9149 87.0589 75.8515 83.0168 74.6889C81.0047 74.1114 78.9259 73.7419 76.8342 73.6572C74.6605 73.5699 72.4867 73.8214 70.3643 74.286C68.2418 74.7505 66.0526 75.4563 63.9533 76.2185C62.0002 76.9268 60.0677 77.7019 58.1917 78.595C54.5653 80.3222 51.1083 82.5371 48.3519 85.4859C45.7778 88.2397 43.7785 91.6274 43.0394 95.3513C42.2002 99.5833 43.0651 103.923 44.5895 107.899C46.1653 112.005 48.3596 115.875 50.7284 119.571C51.9193 121.431 53.1691 123.251 54.4498 125.053C55.6432 126.731 56.8725 128.389 58.2199 129.949C59.5673 131.51 61.0558 132.975 62.7086 134.225C64.3614 135.475 66.104 136.448 67.9672 137.241C71.8092 138.875 75.9642 139.63 80.127 139.738C84.6876 139.858 89.2712 139.253 93.724 138.301C97.666 137.459 101.562 136.099 104.485 133.209C107.205 130.522 108.915 126.99 110.2 123.436C111.715 119.25 112.741 114.872 113.088 110.432C113.414 106.246 113.103 101.998 112.007 97.9382C110.976 94.1143 109.259 90.4545 106.838 87.3106C104.38 84.1205 101.21 81.4899 97.6096 79.6832C94.0371 77.8892 90.113 76.9166 86.1376 76.5804C82.1134 76.239 78.0507 76.547 74.083 77.2579C70.0717 77.9765 66.104 79.0903 62.3288 80.6251C58.5792 82.1495 55.0144 84.1257 51.8756 86.6947C50.2921 87.9907 48.8267 89.4356 47.5871 91.0679C46.3475 92.7001 45.3903 94.5505 44.7127 96.4985C43.3269 100.482 42.9624 104.811 42.7109 108.997C42.4491 113.345 42.6647 117.715 44.1276 121.852C45.4159 125.497 47.4665 128.833 49.9739 131.764C52.4813 134.695 55.656 137.554 59.2208 139.355C63.0807 141.306 67.4411 141.829 71.7065 141.36C75.3277 140.962 78.8412 139.897 82.1211 138.319C85.4113 136.735 88.4474 134.646 91.1909 132.241C93.9344 129.836 96.4675 127.024 98.649 124.029C101.038 120.754 103.179 117.145 104.187 113.185C104.693 111.204 104.896 109.133 104.644 107.1C104.413 105.214 103.818 103.4 102.943 101.713C101.179 98.3104 98.382 95.5258 95.251 93.3597C92.1148 91.1885 88.5757 89.641 84.9262 88.5656C81.2767 87.4903 77.3244 86.8487 73.4491 86.5202C69.271 86.166 64.8259 85.8965 60.7915 87.2593C57.5167 88.3654 54.6833 90.5289 52.5404 93.2186C50.3717 95.9416 48.8421 99.1701 48.0568 102.563C47.0662 106.841 47.1714 111.299 47.8669 115.613C48.2185 117.802 48.7266 119.963 49.3323 122.096C49.938 124.229 50.5591 126.192 51.3957 128.153C52.2016 130.039 53.2256 131.833 54.5909 133.373C55.8588 134.805 57.3858 136.004 59.0309 136.974C62.6572 139.117 66.802 140.12 70.9391 140.685C73.1463 140.985 75.3714 141.201 77.5914 141.362C79.8113 141.524 81.9107 141.573 84.0536 141.275C86.1709 140.98 88.1728 140.282 90.0129 139.194C91.7247 138.18 93.2979 136.92 94.7788 135.596C97.5762 133.088 100.017 130.18 102.034 127.013C104.051 123.846 105.635 120.433 106.744 116.863C107.852 113.296 108.594 109.464 108.494 105.717C108.445 103.846 108.15 101.96 107.418 100.228C106.687 98.4952 105.609 97.1991 104.228 96.057C102.029 94.24 99.2521 92.8849 97.7918 90.3288C97.5454 89.8976 96.8807 90.2851 97.1271 90.7163C98.8055 93.6549 102.057 95.0125 104.434 97.2633C107.139 99.8246 107.839 103.52 107.716 107.111C107.593 110.686 106.823 114.266 105.678 117.648C104.534 121.031 102.899 124.349 100.889 127.36C98.88 130.37 96.4752 133.116 93.7394 135.488C92.2663 136.766 90.7033 137.967 88.9838 138.893C87.1693 139.869 85.1906 140.418 83.1451 140.616C81.0997 140.813 78.931 140.708 76.8342 140.536C74.7375 140.364 72.5509 140.159 70.4258 139.843C66.4864 139.258 62.5546 138.236 59.131 136.14C57.5398 135.164 56.0846 133.968 54.881 132.536C53.6029 131.02 52.6584 129.239 51.9141 127.409C51.1442 125.515 50.5385 123.549 49.9893 121.58C49.4042 119.489 48.9191 117.366 48.5829 115.218C47.9362 111.091 47.8592 106.808 48.8139 102.72C49.5787 99.4499 51.0416 96.3086 53.1512 93.6857C55.2249 91.109 57.935 89.0147 61.0943 87.9702C64.9901 86.6819 69.253 86.9436 73.2823 87.2773C80.6069 87.8829 88.1035 89.5537 94.3117 93.6523C97.3812 95.6772 100.14 98.3001 101.962 101.521C102.853 103.094 103.5 104.803 103.797 106.587C104.128 108.553 103.997 110.581 103.556 112.518C102.676 116.37 100.659 119.879 98.3898 123.076C96.3289 125.984 93.9652 128.687 91.3295 131.089C86.1684 135.793 79.8344 139.363 72.8717 140.438C68.8193 141.065 64.5359 140.847 60.7324 139.222C57.1907 137.708 54.1392 135.167 51.5343 132.37C48.9858 129.631 46.83 126.482 45.3877 123.02C44.6742 121.308 44.1378 119.519 43.8093 117.692C43.4141 115.49 43.3268 113.244 43.3859 111.012C43.4449 108.779 43.6143 106.754 43.8401 104.637C44.0506 102.653 44.3432 100.672 44.841 98.7338C45.3441 96.7782 46.0601 94.8765 47.1021 93.1416C48.144 91.4067 49.4093 89.9643 50.8388 88.6221C56.5645 83.2505 64.1663 80.2298 71.7271 78.5231C79.2057 76.8344 87.3002 76.488 94.5837 79.2084C98.2512 80.5789 101.595 82.7603 104.316 85.5757C107.036 88.3911 109.002 91.689 110.339 95.282C113.234 103.063 112.882 111.61 110.65 119.512C109.615 123.174 108.276 126.865 106.12 130.029C105.08 131.556 103.82 132.957 102.329 134.053C100.753 135.211 98.9621 136.027 97.1091 136.627C95.2125 137.243 93.2518 137.649 91.291 138.003C89.0659 138.406 86.8203 138.714 84.5644 138.873C80.3939 139.165 76.1695 138.95 72.1197 137.867C68.3188 136.853 64.7258 135.09 61.7641 132.48C58.7229 129.801 56.3438 126.467 54.0443 123.156C51.6395 119.699 49.3682 116.139 47.4485 112.387C45.5417 108.658 43.8966 104.647 43.5398 100.433C43.2165 96.5986 44.1481 92.8849 46.1551 89.6102C48.1364 86.3816 50.9594 83.7664 54.129 81.7235C57.5167 79.542 61.2611 77.9739 65.0517 76.6471C69.0374 75.2509 73.1822 74.1833 77.4399 74.4682C81.6977 74.753 85.4498 76.1107 89.0736 77.9406C92.6974 79.7704 96.021 81.8672 98.9005 84.562C101.79 87.267 103.884 90.588 105.175 94.3221C106.561 98.3309 107.195 102.655 107.005 106.89C106.69 113.93 103.679 120.602 98.726 125.599C96.3623 127.986 93.5879 129.96 90.539 131.371C87.3669 132.839 83.8997 133.645 80.4144 133.807C73.3028 134.135 66.0475 131.831 60.6144 127.185C57.5911 124.601 55.2351 121.378 53.8877 117.623C53.1897 115.675 52.72 113.653 52.3504 111.617C51.9604 109.467 51.6524 107.283 51.7396 105.093C51.8192 103.058 52.3068 101.092 53.2333 99.2779C54.0982 97.5815 55.2531 96.0545 56.5106 94.6301C59.2157 91.5658 62.2928 88.7863 65.5419 86.3123C68.732 83.8844 72.1479 81.6516 75.9155 80.2273C79.4854 78.8773 83.4223 78.2742 87.1436 79.3675C90.865 80.4608 93.978 83.0375 96.411 85.9222C98.7465 88.6888 100.481 92.0277 101.061 95.6233C101.721 99.7245 100.615 103.846 99.0083 107.601C97.453 111.23 95.5641 114.869 93.0054 117.9C90.4954 120.874 87.2668 123.015 83.7097 124.547C81.8978 125.327 80.0166 125.948 78.1175 126.482C76.0335 127.067 73.9034 127.56 71.7373 127.686C69.7303 127.804 67.7413 127.575 65.8319 126.934C64.0482 126.336 62.3852 125.415 60.8607 124.319C57.9273 122.209 55.4481 119.43 53.5695 116.352C49.9457 110.421 48.3263 102.714 51.2289 96.1494C51.9552 94.5043 52.9664 92.9645 54.3446 91.7891C55.8305 90.5238 57.6783 89.9233 59.5749 89.5999C61.7051 89.238 63.884 89.0815 66.0398 88.9352C68.3214 88.7812 70.6081 88.7016 72.8948 88.6965C77.2731 88.6862 81.6797 88.8993 86.017 89.5152C90.1156 90.0978 94.209 91.0884 97.9535 92.8926C101.205 94.4582 104.203 96.6165 106.518 99.4037C108.971 102.358 110.424 105.966 111.063 109.731C111.391 111.669 111.504 113.64 111.463 115.603C111.42 117.659 111.235 119.727 110.763 121.732C110.321 123.61 109.61 125.417 108.517 127.013C107.565 128.404 106.351 129.623 104.988 130.614C102.15 132.68 98.708 133.835 95.21 134.01C91.1498 134.212 87.1 133.209 83.4326 131.505C79.7651 129.801 76.5134 127.434 73.5107 124.783C70.5234 122.147 67.7388 119.265 65.0825 116.299C62.4263 113.332 60.1011 110.401 58.0659 107.124C56.0307 103.846 54.2368 100.197 53.3667 96.3907C52.9151 94.4197 52.8073 92.3383 53.5336 90.4186C54.1162 88.8813 55.2017 87.5878 56.4644 86.5561C59.2618 84.2694 62.9165 83.171 66.4068 82.5011C70.5927 81.6978 74.9043 81.6414 79.1338 82.1213C83.217 82.5832 87.3721 83.4764 91.0446 85.373C94.2219 87.0155 97.0424 89.4818 98.6798 92.7027C100.582 96.442 100.368 100.761 99.6961 104.783C98.4129 112.462 95.3742 120.048 89.6973 125.538C87.0898 128.058 83.9792 130.091 80.5402 131.271C78.5538 131.954 76.4647 132.359 74.3602 132.264C72.6715 132.19 71.0059 131.79 69.4455 131.148C66.2041 129.819 63.4349 127.483 61.1687 124.85C58.6844 121.963 56.6595 118.575 55.3224 115.008C53.9699 111.399 53.3898 107.493 54.1033 103.677C54.7475 100.23 56.3207 97.0349 58.3893 94.2246C60.4578 91.4144 63.0987 88.907 65.9526 86.8307C69.1401 84.5106 72.6715 82.555 76.4801 81.4874C80.1655 80.4531 84.0177 80.3864 87.7108 81.4284C91.2089 82.4164 94.4503 84.3053 97.0347 86.8641C102.352 92.1227 104.708 100.097 103.476 107.434C102.873 111.03 101.436 114.535 99.0801 117.343C96.7241 120.151 93.5777 122.083 90.0334 122.833C88.3242 123.195 86.5328 123.261 84.8082 122.961C82.8808 122.625 81.0791 121.834 79.4109 120.826C76.1978 118.88 73.3824 116.275 70.9623 113.416C68.5421 110.557 66.5172 107.403 64.7566 104.116C63.884 102.483 63.0756 100.815 62.3236 99.1239C61.4741 97.2171 60.6657 95.2743 60.1729 93.2391C59.2978 89.6307 59.5852 85.3986 62.4853 82.7449C64.8721 80.5609 68.3291 80.0425 71.4473 80.1965C75.0634 80.3761 78.6975 81.4361 81.9902 82.9066C85.4472 84.449 88.6527 86.5561 91.4167 89.1431C94.1808 91.73 96.5214 94.6917 97.1322 98.3694C97.7764 102.252 95.9517 105.966 93.7625 109.043C92.6332 110.632 91.368 112.123 90.0771 113.581C88.7862 115.038 87.3669 116.514 85.8681 117.828C82.9321 120.402 79.5085 122.471 75.6562 123.284C73.7314 123.69 71.7168 123.772 69.7817 123.402C67.8466 123.033 65.9243 122.14 64.1663 121.121C60.9737 119.268 57.9915 117.009 55.5046 114.271C53.0177 111.533 50.9697 108.14 49.9765 104.46C48.9705 100.728 48.9833 96.7012 50.3871 93.0723C51.7935 89.4331 54.4934 86.2943 57.6065 83.9922C60.7196 81.6901 64.3588 80.2093 68.1777 79.5703C71.9914 78.9312 75.9309 79.116 79.7087 79.8911C83.4865 80.6661 86.9204 81.8954 90.1438 83.733C93.144 85.4423 95.9157 87.7906 97.3914 90.9781C99.0032 94.4582 98.6823 98.4746 97.4376 102.011C95.0893 108.684 89.5561 114.138 83.122 116.927C79.9987 118.282 76.5853 119.009 73.1771 118.952C69.7688 118.896 66.4299 118.064 63.3861 116.596C60.3423 115.128 57.6142 113.039 55.4686 110.432C53.1332 107.591 51.3341 104.005 51.3393 100.266C51.3444 96.2803 53.0921 92.4871 55.4533 89.3535C57.7348 86.3302 60.676 83.8357 63.825 81.7569C70.49 77.3605 78.4639 74.7248 86.502 75.564C90.3696 75.967 94.1782 77.1783 97.4864 79.234C99.0031 80.1759 100.443 81.3411 101.482 82.8065C102.583 84.3567 103.097 86.1429 102.945 88.0421C102.784 90.0541 102.006 91.9995 101.141 93.8011C100.358 95.4308 99.4292 96.9912 98.3718 98.4592C96.2314 101.426 93.5469 104.016 90.4903 106.028C88.8324 107.118 87.0538 108.068 85.1264 108.579C83.1143 109.113 81.0663 109.036 79.0773 108.438C75.628 107.401 72.3969 105.222 70.0434 102.507C67.8004 99.9195 66.3452 96.6011 66.6994 93.1313C66.897 91.2065 67.6361 89.3612 68.6191 87.7084C69.602 86.0556 70.7877 84.6005 72.1941 83.3455C73.5133 82.1701 75.0506 81.1974 76.7496 80.6841C78.6513 80.1092 80.6377 80.2016 82.5369 80.7354C84.4591 81.2769 86.2762 82.2034 87.9341 83.307C89.3764 84.2694 90.7084 85.4166 91.7966 86.7717C92.8591 88.096 93.6521 89.6461 93.9909 91.3143C94.4015 93.3443 94.1423 95.4976 93.7394 97.5071C92.9977 101.218 91.4553 104.755 89.2481 107.829C88.1651 109.338 86.9204 110.768 85.4934 111.961C84.0665 113.155 82.3778 114.138 80.5171 114.348C77.0883 114.738 74.2652 112.297 72.7074 109.462C70.8467 106.076 70.5234 101.857 71.4062 98.1384C71.6372 97.1606 71.9452 96.1828 72.3661 95.2666C72.728 94.4813 73.213 93.7011 74.0291 93.3315C75.7178 92.5641 77.7915 93.6318 79.3032 94.3632C82.2905 95.8107 85.5524 97.9536 86.4045 101.385C87.0923 104.154 86.0683 107.704 82.9475 108.353C79.8267 109.002 76.8368 106.644 76.2594 103.746C75.9847 102.365 76.2286 100.715 77.3604 99.7707C78.777 98.5876 80.9508 99.0418 82.4419 99.8297C83.7534 100.525 84.9339 101.829 84.5798 103.418C84.4181 104.141 83.9459 104.737 83.2144 104.937C82.4163 105.155 81.5488 104.875 80.8353 104.511C80.1219 104.146 79.3648 103.677 78.9901 102.976C78.5384 102.134 79.2852 101.595 80.0243 101.38C80.8661 101.136 81.8747 101.072 82.6524 101.544C83.2837 101.926 83.6892 102.691 83.4608 103.418C83.3119 103.892 84.0562 104.095 84.2025 103.623L84.2153 103.625Z" fill="black"/>
<path d="M145.538 102.791C142.633 102.894 139.645 101.908 137.597 99.7938C135.364 97.4865 134.448 94.0347 134.294 90.9062C134.225 89.4972 134.184 87.9445 134.697 86.6048C134.895 86.089 135.213 85.5475 135.721 85.2857C136.186 85.047 136.737 85.0958 137.169 85.3781C138.203 86.0582 138.562 87.5441 138.898 88.6528C139.396 90.2979 140.053 91.9328 140.91 93.4239C141.588 94.6018 142.591 95.8055 144.039 95.9313C145.33 96.0416 146.367 95.1742 146.993 94.1219C147.724 92.8926 147.968 91.4913 148.148 90.0952C148.387 88.2396 148.471 86.3687 148.494 84.4978C148.582 77.6351 147.783 70.29 150.819 63.8842C151.171 63.145 151.556 62.3931 152.039 61.7284C152.475 61.1304 153.057 60.7069 153.822 60.7274C155.36 60.7685 156.34 62.1338 156.766 63.4684C157.023 64.2717 157.153 65.1083 157.282 65.9399C157.423 66.8458 157.541 67.7543 157.639 68.6654C157.841 70.5543 157.959 72.4535 157.988 74.3552C158.044 78.0817 157.767 81.8107 157.146 85.4859C156.684 88.214 155.38 92.1406 158.19 94.0732C159.225 94.7866 160.567 94.9329 161.778 94.7045C163.151 94.4453 164.311 93.6394 165.161 92.5436C167.222 89.8796 167.17 86.3764 167.26 83.1786C167.304 81.6516 167.296 79.9757 168.045 78.595C168.312 78.1048 168.69 77.6172 169.223 77.4067C169.757 77.1963 170.373 77.3143 170.827 77.6659C171.898 78.4949 172.239 80.0578 172.609 81.282C173.147 83.0606 173.658 84.8571 173.948 86.6947C174.451 89.8745 174.218 93.37 172.334 96.0904C170.65 98.5208 167.85 99.7886 165.132 100.692C163.741 101.154 162.327 101.536 160.926 101.962C159.525 102.388 157.99 102.979 157.102 104.303C156.196 105.655 156.019 107.38 155.742 108.943C155.465 110.506 155.206 112.043 155.034 113.606C154.862 115.169 154.8 116.812 154.815 118.421C154.821 118.916 155.59 118.916 155.585 118.421C155.567 116.712 155.639 115.005 155.837 113.306C156.034 111.607 156.319 110.062 156.607 108.45C156.879 106.931 157.1 105.194 158.288 104.08C159.409 103.03 161.093 102.709 162.52 102.293C165.361 101.465 168.341 100.63 170.732 98.8134C171.936 97.8997 172.942 96.7602 173.633 95.4103C174.364 93.9808 174.754 92.4024 174.89 90.8061C175.203 87.1669 174.123 83.5764 173.058 80.14C172.683 78.9312 172.134 77.5042 170.969 76.8447C169.803 76.1851 168.479 76.6599 167.709 77.6865C166.821 78.8696 166.631 80.3735 166.541 81.8056C166.421 83.7099 166.511 85.627 166.259 87.521C165.892 90.2774 164.517 93.4983 161.442 93.9833C160.231 94.1733 158.886 93.8832 158.049 92.9388C157.012 91.7685 157.12 90.031 157.348 88.5938C157.633 86.8101 158.011 85.0496 158.242 83.2582C158.485 81.3744 158.645 79.4778 158.714 77.5787C158.855 73.7444 158.637 69.8999 158.07 66.1041C157.828 64.4847 157.595 62.7344 156.555 61.405C155.724 60.3425 154.192 59.6213 152.857 60.1064C152.123 60.3733 151.607 60.9559 151.192 61.5949C150.737 62.2904 150.352 63.0347 150.008 63.7918C149.318 65.3188 148.818 66.9254 148.474 68.5653C147.745 72.0326 147.668 75.5871 147.694 79.116C147.722 82.9451 147.86 86.8076 147.298 90.6085C147.108 91.8994 146.788 93.3007 145.91 94.3118C145.538 94.743 145.058 95.0869 144.48 95.1562C143.785 95.2409 143.143 94.9252 142.648 94.4607C142.119 93.9654 141.727 93.3443 141.388 92.7078C140.959 91.9045 140.579 91.0756 140.248 90.2286C139.707 88.8402 139.432 87.3157 138.693 86.0094C138.095 84.952 137.04 84.0769 135.757 84.4439C134.474 84.8109 133.93 86.1352 133.691 87.2875C133.37 88.8402 133.437 90.5366 133.612 92.1021C133.796 93.7549 134.186 95.3743 134.843 96.9039C135.459 98.3335 136.296 99.6808 137.453 100.736C138.542 101.729 139.84 102.463 141.231 102.938C142.622 103.412 144.075 103.61 145.527 103.559C146.023 103.541 146.023 102.771 145.527 102.789L145.538 102.791Z" fill="black"/>
<path d="M147.46 116.119C147.547 114.243 147.645 112.369 147.745 110.493C147.794 109.587 147.84 108.681 147.883 107.778C147.935 106.728 148.117 105.571 147.84 104.542C147.563 103.513 146.662 102.694 145.568 102.902C145.083 102.994 145.289 103.738 145.774 103.643C146.69 103.466 147.136 104.583 147.188 105.296C147.257 106.274 147.139 107.283 147.09 108.258C147.013 109.818 146.929 111.376 146.846 112.936C146.793 113.996 146.739 115.056 146.69 116.116C146.667 116.612 147.437 116.612 147.46 116.116V116.119Z" fill="black"/>
<path d="M181.288 122.586C176.861 123.441 172.326 122.969 167.961 121.993C163.544 121.005 159.25 119.537 154.921 118.236C150.522 116.917 146.095 115.688 141.644 114.556C137.194 113.424 132.762 112.392 128.289 111.453C123.795 110.509 119.281 109.657 114.751 108.899C114.184 108.804 113.619 108.712 113.052 108.62C112.567 108.54 112.359 109.284 112.846 109.361C117.402 110.098 121.942 110.93 126.464 111.856C130.986 112.782 135.485 113.806 139.963 114.923C144.442 116.039 148.936 117.263 153.383 118.577C157.831 119.892 162.104 121.362 166.549 122.448C170.994 123.533 175.403 124.165 179.861 123.587C180.408 123.515 180.952 123.431 181.493 123.325C181.979 123.23 181.773 122.489 181.288 122.584V122.586Z" fill="black"/>
<path d="M41.8922 101.559C36.6104 100.874 31.2722 100.779 25.9571 101.005C20.583 101.233 15.2294 101.78 9.88354 102.358C6.87824 102.684 3.87551 103.017 0.867645 103.315C0.380022 103.364 0.374889 104.134 0.867645 104.085C6.2084 103.556 11.5389 102.907 16.8848 102.411C22.2178 101.916 27.5766 101.575 32.9353 101.683C35.9303 101.742 38.9228 101.944 41.8922 102.329C42.3823 102.394 42.3772 101.624 41.8922 101.559Z" fill="black"/>
<path d="M110.498 95.8953C110.557 95.8902 110.614 95.8876 110.673 95.8825L111.889 95.7927C112.993 95.7105 114.099 95.6284 115.203 95.5463C117.356 95.3872 119.509 95.2255 121.66 95.0664C125.191 94.8046 128.723 94.5402 132.251 94.2785C132.814 94.2374 133.373 94.1938 133.935 94.1527C134.425 94.1168 134.43 93.3469 133.935 93.3828C130.191 93.6625 126.446 93.9397 122.702 94.2194C120.407 94.3914 118.11 94.5608 115.816 94.7327C114.6 94.8225 113.383 94.9149 112.167 95.0048L110.742 95.11C110.66 95.1151 110.578 95.1177 110.496 95.128C110.006 95.1639 110 95.9338 110.496 95.8979L110.498 95.8953Z" fill="black"/>
<path d="M173.825 93.8524C180.667 93.8524 187.509 93.8524 194.354 93.8524C196.279 93.8524 198.204 93.8524 200.128 93.8524C200.624 93.8524 200.624 93.0825 200.128 93.0825C193.286 93.0825 186.444 93.0825 179.6 93.0825C177.675 93.0825 175.75 93.0825 173.825 93.0825C173.33 93.0825 173.33 93.8524 173.825 93.8524Z" fill="black"/>
<path d="M24.3735 101.688C24.3735 100.091 24.3607 98.4951 24.353 96.8988C24.3478 96.0698 24.412 95.2152 24.3401 94.3888C24.3145 94.0731 24.1784 93.7908 23.8807 93.6497C23.542 93.4905 23.1698 93.6137 22.8285 93.6933C21.3656 94.0269 19.7719 93.9422 18.7556 92.7052C17.8419 91.5888 17.5416 90.013 17.3466 88.6246C17.208 87.6391 17.1618 86.6407 17.1977 85.6475C17.2157 85.1496 17.1207 83.7945 17.8137 83.6559L17.38 83.4789C18.753 85.5987 17.9266 89.1507 20.6701 90.3389C21.7352 90.8009 22.9286 90.5186 23.5805 89.5357C24.1733 88.6451 24.2118 87.4491 24.1785 86.4174C24.0758 83.2941 24.0347 80.1656 24.607 77.0782C24.8252 75.9104 25.1178 74.7299 25.7671 73.7187C26.0468 73.285 26.401 72.8846 26.845 72.6151C27.0657 72.4817 27.2967 72.3841 27.5482 72.3251C27.8664 72.2481 28.1154 72.2276 28.2642 72.5587C28.5542 73.2131 28.7133 73.9625 28.8545 74.6606C28.9956 75.3587 29.0906 76.1183 29.1419 76.8549C29.2472 78.3409 29.2061 79.8319 29.1368 81.3205C29.0675 82.809 28.9546 84.2873 28.952 85.7707C28.952 86.7613 29.124 88.0189 30.0556 88.5809C31.1592 89.2508 32.3295 88.4295 32.9043 87.4697C33.5434 86.4046 33.4356 85.0598 34.108 84.0178C34.2466 83.8022 34.5109 83.4378 34.8009 83.4737C35.091 83.5097 35.2809 83.8484 35.4118 84.0614C35.6864 84.5131 35.8942 85.0008 36.038 85.5089C36.3254 86.5227 36.3562 87.6083 36.1509 88.6425C35.9456 89.6768 35.5144 90.688 34.8625 91.5298C34.1439 92.4588 33.1969 93.0388 32.1626 93.5598C31.0231 94.1321 29.8939 94.7096 29.1317 95.7695C28.4131 96.7679 28.2309 97.9895 28.2899 99.1932C28.3207 99.8425 28.4079 100.489 28.4824 101.133C28.5388 101.618 29.3088 101.626 29.2523 101.133C29.1086 99.9092 28.8776 98.6054 29.2035 97.3915C29.55 96.1057 30.5227 95.287 31.6519 94.6788C32.7196 94.1065 33.836 93.6394 34.7342 92.8027C35.5221 92.0662 36.1124 91.1422 36.5076 90.1413C37.3007 88.1369 37.2416 85.7527 36.1791 83.8561C35.8994 83.3582 35.5093 82.7988 34.901 82.7115C34.2338 82.6165 33.7025 83.1863 33.392 83.7098C32.7555 84.7775 32.853 86.1197 32.1883 87.1643C31.9111 87.598 31.4389 88.0907 30.8794 88.0548C30.3764 88.0215 30.0633 87.6108 29.9119 87.1668C29.7399 86.651 29.7168 86.1095 29.7245 85.5705C29.7374 84.8237 29.7681 84.0768 29.8041 83.33C29.9504 80.3555 30.1813 77.3399 29.5834 74.3962C29.4371 73.6776 29.2523 72.9436 28.97 72.2635C28.6877 71.5834 28.1385 71.4217 27.4686 71.5526C26.3907 71.7605 25.5566 72.5638 25.01 73.4749C24.3889 74.5117 24.0835 75.6923 23.8628 76.8703C23.5728 78.4281 23.4214 80.009 23.3623 81.59C23.3033 83.1709 23.3418 84.7236 23.4034 86.2891C23.4419 87.2567 23.4804 88.5347 22.79 89.3098C21.9687 90.2312 20.606 89.6948 19.9772 88.8299C19.1662 87.716 19.1149 86.248 18.8018 84.952C18.6426 84.2976 18.4142 83.6559 18.0472 83.0888C17.9471 82.9373 17.788 82.8757 17.6135 82.9117C16.9488 83.0451 16.6408 83.7073 16.5382 84.3155C16.397 85.1522 16.4022 86.035 16.4329 86.882C16.492 88.5296 16.7178 90.2697 17.3594 91.7992C17.9317 93.162 18.9557 94.2913 20.4648 94.5607C21.2861 94.707 22.1227 94.6352 22.9312 94.4606C23.0826 94.4273 23.2776 94.34 23.4316 94.3452C23.5574 94.3503 23.524 94.3041 23.5753 94.4042C23.601 94.4555 23.5805 94.5684 23.5805 94.6275C23.5805 95.0869 23.5805 95.5462 23.5805 96.0082C23.5856 97.8997 23.6061 99.7937 23.6036 101.685C23.6036 102.18 24.3735 102.18 24.3735 101.685V101.688Z" fill="black"/>
</g>
<defs>
<clipPath id="clip0_6061_649">
<rect width="200" height="200" fill="white" transform="translate(0.5 0.638672)"/>
</clipPath>
</defs>
</svg>
